<?xml version="1.0" encoding="utf-8" ?><svg xmlns="http://www.w3.org/2000/svg" xmlns:xlink="http://www.w3.org/1999/xlink" width="1080" height="1080" viewBox="0 0 1080 1080"><circle cx="540" cy="540" r="540" fill="white" /><g transform="translate(162, 162) scale(0.7)"><path fill="#3BC193" d="M535.702 46.3029C537.675 46.4003 538.544 46.9477 540.312 47.908C571.897 65.0684 603.474 82.3496 635.005 99.5996L803.221 191.306L968.557 281.299C1002.07 299.485 1037.15 317.977 1070.27 336.704C1051.91 338.323 1024.91 337.545 1005.81 337.529C973.643 337.501 940.725 337.913 908.617 337.422L907.105 629.61L906.978 721.852C906.959 739.678 907.353 761.385 906.474 778.972L652.873 778.895C651.74 767.037 651.891 655.757 653.133 652.989C653.658 651.817 655.704 650.607 656.76 649.951C663.882 645.528 671.562 641.75 678.916 637.695C697.629 627.378 716.596 617.236 734.779 606.002C741.521 601.837 748.22 597.097 754.355 592.086C764.406 583.877 773.786 573.681 779.894 562.157C799.614 524.954 790.259 460.857 778.009 421.766C758.094 358.224 711.299 309.147 652.908 278.664C651.638 295.327 652.585 317.725 652.437 334.844C652.104 373.481 652.905 412.452 652.411 451.091C647.922 454.087 640.74 457.56 635.802 460.09L608.5 474.073C584.788 486.234 560.932 499.217 537.033 510.89C534.715 511.049 503.461 494.411 498.221 491.684C472.401 478.097 446.445 464.768 420.359 451.699C419.304 438.52 419.966 416.423 419.982 402.636L419.995 324.236C419.998 309.574 420.383 293.403 419.853 278.881C410.82 282.677 401.694 288.596 393.593 294.005C360.544 316.075 333.698 342.386 314.012 377.073C293.825 412.643 283.893 452.17 281.663 492.846C280.525 509.725 281.009 526.439 285.059 542.905C295.092 583.692 331.265 603.198 364.938 622.37C382.812 632.547 401.626 642.289 419.699 652.527C419.871 674.813 419.925 697.101 419.862 719.388C419.867 739.069 420.103 759.353 419.758 778.983C335.203 777.889 249.758 779.852 165.186 778.805C164.575 762.024 164.972 742.904 164.971 725.979L164.975 632.683L164.967 337.534L56.9606 337.563L20.479 337.451C16.1248 337.425 8.64885 337.718 4.7063 337.431L4.67997 336.621C7.06297 333.338 18.9614 327.849 22.9891 325.625C39.9877 316.124 57.085 306.8 74.278 297.656L192.884 233.193L535.702 46.3029Z"/><path fill="#3BC193" d="M923.672 898.936C962.439 896.885 995.525 926.656 997.563 965.424C999.6 1004.19 969.816 1037.27 931.048 1039.29C892.299 1041.31 859.243 1011.55 857.207 972.8C855.171 934.051 884.924 900.986 923.672 898.936ZM932.069 1004.53C951.634 1001.93 965.346 983.903 962.628 964.354C959.909 944.804 941.798 931.203 922.265 934.041C902.902 936.855 889.443 954.776 892.138 974.157C894.834 993.538 912.672 1007.11 932.069 1004.53Z"/><path fill="#3BC193" d="M686.013 901.431C697.266 900.926 711.56 901.488 723.076 901.417C733.13 901.355 752.032 900.713 760.864 902.648C772.72 905.284 783.008 912.601 789.388 922.936C797.863 936.578 798.035 956.743 789.442 970.326C784.013 978.909 778.402 983.003 769.898 988.149C775.596 1000.51 792.076 1021.88 798.231 1034.94C798.541 1035.6 798.313 1035.68 797.795 1036.49C794.512 1037.17 781.683 1036.95 777.437 1036.97C771.453 1037.01 765.468 1036.92 759.489 1036.69C755.748 1033.44 734.76 999.359 730.757 992.534L719.358 992.378C718.649 1006.15 719.04 1022.96 719.134 1036.84C708.473 1036.98 696.056 1036.37 685.584 1037.18L685.686 937.907C685.696 931.433 684.965 906.046 686.013 901.431ZM719.385 931.257C718.924 939.442 718.915 954.039 719.37 962.327C729.343 962.507 745.756 963.869 754.39 960.031C768.553 949.943 761.967 931.046 744.799 931.06C738.5 931.066 732.407 930.689 725.971 930.993L719.385 931.257Z"/><path fill="#3BC193" d="M517.934 901.396C529.093 901.019 540.653 901.5 551.862 901.521C576.077 901.565 601.771 897.143 618.078 919.605C619.801 921.979 621.283 924.452 622.503 927.126C635.546 959.852 616.126 990.97 580.361 992.093C571.286 992.05 558.992 991.816 550.158 992.459C549.783 1006.94 550.025 1022.25 550.061 1036.8C539.592 1037.14 526.857 1036.98 516.421 1036.71C515.223 1008.24 516.217 974.486 516.138 945.629L516.044 914.325C516.068 910.9 516.001 906.828 516.246 903.418C516.346 902.032 516.856 902.064 517.934 901.396ZM550.265 962.461C561.262 962.555 579.601 964.495 588.192 958.142C600.586 940.65 586.553 929.133 569.174 930.793C564.597 931.23 555.431 931.075 550.7 930.968C549.664 937.87 549.749 955.352 550.265 962.461Z"/><path fill="#3BC193" d="M416.045 901.772C420.599 901.264 451.727 900.928 455.825 901.661L456.304 902.704C456.029 906.977 418.204 960.878 413.004 968.573C418.65 976.672 457.444 1032.61 457.267 1035.91C456.24 1036.84 455.097 1036.7 453.647 1036.8C441.676 1036.61 429.854 1037.16 417.818 1036.69C414.005 1033.22 412.309 1029.46 409.45 1025.53C403.818 1017.78 396.533 1004.69 390.49 997.973C381.854 1008.42 372.707 1025.9 363.878 1036.61C362.968 1036.68 362.058 1036.74 361.147 1036.79C356.242 1037.06 326.224 1037.7 323.874 1035.62C324.556 1031.36 362.979 975.887 368.186 968.645C365.888 964.324 358.762 954.536 355.78 950.169L334.976 919.418C332.822 916.293 325.808 906.581 324.536 903.637C324.831 901.847 324.406 902.548 325.841 901.455C331.998 901.05 359.378 901.18 364.919 901.737C368.263 904.745 387.237 933.629 390.068 938.284C398.472 929.939 408.088 910.222 416.045 901.772Z"/><path fill="#3BC193" d="M75.7018 901.325L130.575 901.477C143.908 901.428 158.977 900.972 172.142 901.448C172.638 910.317 172.275 921.48 172.531 930.721C152.405 931.299 128.986 930.886 108.703 930.705C108.199 938.291 108.465 946.578 108.663 954.182C122.225 955.458 145.916 954.17 160.724 954.51C161.027 960.263 160.806 967.966 160.792 973.872C160.836 977.665 160.754 980.342 160.474 984.124C143.664 984.056 125.273 983.662 108.593 984.206C108.068 989.871 108.459 997.405 108.492 1003.25C108.585 1014.48 108.566 1025.7 108.436 1036.92C97.5037 1037 86.3592 1036.85 75.4113 1036.82C74.5434 1027.46 74.0856 905.279 75.7018 901.325Z"/><path fill="#3BC193" d="M233.695 901.46C240.753 901.191 258.241 900.948 264.907 901.749C264.398 912.976 264.838 927.569 264.878 938.957L264.883 1002.13C264.869 1011.59 265.343 1026.99 264.616 1035.74C263.528 1037.02 263.628 1036.61 261.422 1036.94C251.3 1036.86 241.034 1037.01 230.933 1036.64C230.015 1003.18 231.317 969.272 230.716 935.777C230.644 931.794 230.23 903.711 231.51 901.838L233.695 901.46Z"/></g></svg>